<svg width="713" height="620" viewBox="0 0 713 620" fill="none" xmlns="http://www.w3.org/2000/svg">
<path d="M411.745 56.7802C466.809 69.1196 516.35 99.0718 552.861 142.098C589.373 185.124 610.864 238.879 614.079 295.217C617.293 351.556 602.056 407.406 570.675 454.306C539.295 501.206 493.482 536.599 440.179 555.122C386.876 573.645 328.987 574.288 275.286 556.953C221.584 539.619 174.997 505.252 142.583 459.061C110.168 412.869 93.6944 357.371 95.657 300.975C97.6196 244.579 117.912 190.36 153.458 146.534" stroke="#BDBDBD"/>
<path d="M411.898 117.757C452.927 130.015 488.939 155.118 514.635 189.372C540.331 223.627 554.354 265.225 554.642 308.045C554.929 350.866 541.466 392.648 516.232 427.244C490.998 461.841 455.326 487.425 414.465 500.232C373.604 513.04 329.711 512.395 289.244 498.391C248.777 484.388 213.872 457.767 189.666 422.443C165.46 387.12 153.231 344.96 154.777 302.167C156.323 259.373 171.563 218.206 198.255 184.721" stroke="#BDBDBD"/>
<path d="M411.51 181.456C438.183 193.312 460.484 213.208 475.292 238.362C490.101 263.517 496.677 292.67 494.1 321.746C491.523 350.821 479.923 378.364 460.922 400.522C441.92 422.681 416.468 438.345 388.126 445.326C359.783 452.306 329.968 450.253 302.849 439.453C275.731 428.654 252.667 409.648 236.882 385.095C221.097 360.541 213.382 331.668 214.815 302.514C216.248 273.36 226.758 245.382 244.875 222.495" stroke="#BDBDBD"/>
<rect x="297.5" y="44.5" width="114" height="25" rx="2.5" stroke="#BDBDBD"/>
<path d="M334.895 58.5137H331.52V62H329.762V53.4688H335.316V54.8926H331.52V57.0957H334.895V58.5137ZM341.469 58.3027H338.094V60.5879H342.055V62H336.336V53.4688H342.043V54.8926H338.094V56.9258H341.469V58.3027ZM343.086 62V53.4688H345.711C346.461 53.4688 347.131 53.6387 347.721 53.9785C348.314 54.3145 348.777 54.7949 349.109 55.4199C349.441 56.041 349.607 56.748 349.607 57.541V57.9336C349.607 58.7266 349.443 59.4316 349.115 60.0488C348.791 60.666 348.332 61.1445 347.738 61.4844C347.145 61.8242 346.475 61.9961 345.729 62H343.086ZM344.844 54.8926V60.5879H345.693C346.381 60.5879 346.906 60.3633 347.27 59.9141C347.633 59.4648 347.818 58.8223 347.826 57.9863V57.5352C347.826 56.668 347.646 56.0117 347.287 55.5664C346.928 55.1172 346.402 54.8926 345.711 54.8926H344.844ZM356.023 58.3027H352.648V60.5879H356.609V62H350.891V53.4688H356.598V54.8926H352.648V56.9258H356.023V58.3027ZM360.799 58.877H359.398V62H357.641V53.4688H360.811C361.818 53.4688 362.596 53.6934 363.143 54.1426C363.689 54.5918 363.963 55.2266 363.963 56.0469C363.963 56.6289 363.836 57.1152 363.582 57.5059C363.332 57.8926 362.951 58.2012 362.439 58.4316L364.285 61.918V62H362.398L360.799 58.877ZM359.398 57.4531H360.816C361.258 57.4531 361.6 57.3418 361.842 57.1191C362.084 56.8926 362.205 56.582 362.205 56.1875C362.205 55.7852 362.09 55.4688 361.859 55.2383C361.633 55.0078 361.283 54.8926 360.811 54.8926H359.398V57.4531ZM370.121 60.2422H367.039L366.453 62H364.584L367.76 53.4688H369.389L372.582 62H370.713L370.121 60.2422ZM367.514 58.8184H369.646L368.574 55.625L367.514 58.8184ZM375.137 60.5879H378.869V62H373.379V53.4688H375.137V60.5879Z" fill="white"/>
<rect x="297.5" y="103.5" width="114" height="25" rx="2.5" stroke="#BDBDBD"/>
<path d="M330.895 116.303H327.52V118.588H331.48V120H325.762V111.469H331.469V112.893H327.52V114.926H330.895V116.303ZM336.936 117.762C336.936 117.43 336.818 117.176 336.584 117C336.35 116.82 335.928 116.633 335.318 116.437C334.709 116.238 334.227 116.043 333.871 115.852C332.902 115.328 332.418 114.623 332.418 113.736C332.418 113.275 332.547 112.865 332.805 112.506C333.066 112.143 333.439 111.859 333.924 111.656C334.412 111.453 334.959 111.352 335.564 111.352C336.174 111.352 336.717 111.463 337.193 111.686C337.67 111.904 338.039 112.215 338.301 112.617C338.566 113.02 338.699 113.477 338.699 113.988H336.941C336.941 113.598 336.818 113.295 336.572 113.08C336.326 112.861 335.98 112.752 335.535 112.752C335.105 112.752 334.771 112.844 334.533 113.027C334.295 113.207 334.176 113.445 334.176 113.742C334.176 114.02 334.314 114.252 334.592 114.439C334.873 114.627 335.285 114.803 335.828 114.967C336.828 115.268 337.557 115.641 338.014 116.086C338.471 116.531 338.699 117.086 338.699 117.75C338.699 118.488 338.42 119.068 337.861 119.49C337.303 119.908 336.551 120.117 335.605 120.117C334.949 120.117 334.352 119.998 333.812 119.76C333.273 119.518 332.861 119.187 332.576 118.77C332.295 118.352 332.154 117.867 332.154 117.316H333.918C333.918 118.258 334.48 118.729 335.605 118.729C336.023 118.729 336.35 118.645 336.584 118.477C336.818 118.305 336.936 118.066 336.936 117.762ZM346.316 112.893H343.703V120H341.945V112.893H339.367V111.469H346.316V112.893ZM351.438 118.242H348.355L347.77 120H345.9L349.076 111.469H350.705L353.898 120H352.029L351.438 118.242ZM348.83 116.818H350.963L349.891 113.625L348.83 116.818ZM354.695 120V111.469H357.32C358.07 111.469 358.74 111.639 359.33 111.979C359.924 112.314 360.387 112.795 360.719 113.42C361.051 114.041 361.217 114.748 361.217 115.541V115.934C361.217 116.727 361.053 117.432 360.725 118.049C360.4 118.666 359.941 119.145 359.348 119.484C358.754 119.824 358.084 119.996 357.338 120H354.695ZM356.453 112.893V118.588H357.303C357.99 118.588 358.516 118.363 358.879 117.914C359.242 117.465 359.428 116.822 359.436 115.986V115.535C359.436 114.668 359.256 114.012 358.896 113.566C358.537 113.117 358.012 112.893 357.32 112.893H356.453ZM368.957 111.469V117.088C368.957 118.021 368.664 118.76 368.078 119.303C367.496 119.846 366.699 120.117 365.688 120.117C364.691 120.117 363.9 119.854 363.314 119.326C362.729 118.799 362.43 118.074 362.418 117.152V111.469H364.176V117.1C364.176 117.658 364.309 118.066 364.574 118.324C364.844 118.578 365.215 118.705 365.688 118.705C366.676 118.705 367.178 118.186 367.193 117.146V111.469H368.957ZM375.086 118.242H372.004L371.418 120H369.549L372.725 111.469H374.354L377.547 120H375.678L375.086 118.242ZM372.479 116.818H374.611L373.539 113.625L372.479 116.818ZM380.102 118.588H383.834V120H378.344V111.469H380.102V118.588Z" fill="white"/>
<path d="M630.943 148.029H627.645V146.664H630.943V148.029ZM637.16 147.994V151H635.402V142.469H638.73C639.371 142.469 639.934 142.586 640.418 142.82C640.906 143.055 641.281 143.389 641.543 143.822C641.805 144.252 641.936 144.742 641.936 145.293C641.936 146.129 641.648 146.789 641.074 147.273C640.504 147.754 639.713 147.994 638.701 147.994H637.16ZM637.16 146.57H638.73C639.195 146.57 639.549 146.461 639.791 146.242C640.037 146.023 640.16 145.711 640.16 145.305C640.16 144.887 640.037 144.549 639.791 144.291C639.545 144.033 639.205 143.9 638.771 143.893H637.16V146.57ZM646.307 147.877H644.906V151H643.148V142.469H646.318C647.326 142.469 648.104 142.693 648.65 143.143C649.197 143.592 649.471 144.227 649.471 145.047C649.471 145.629 649.344 146.115 649.09 146.506C648.84 146.893 648.459 147.201 647.947 147.432L649.793 150.918V151H647.906L646.307 147.877ZM644.906 146.453H646.324C646.766 146.453 647.107 146.342 647.35 146.119C647.592 145.893 647.713 145.582 647.713 145.188C647.713 144.785 647.598 144.469 647.367 144.238C647.141 144.008 646.791 143.893 646.318 143.893H644.906V146.453ZM655.945 147.303H652.57V149.588H656.531V151H650.812V142.469H656.52V143.893H652.57V145.926H655.945V147.303ZM659.859 142.469L662.051 148.656L664.23 142.469H666.539V151H664.775V148.668L664.951 144.643L662.648 151H661.441L659.145 144.648L659.32 148.668V151H657.562V142.469H659.859ZM669.943 151H668.186V142.469H669.943V151ZM676.5 149.242H673.418L672.832 151H670.963L674.139 142.469H675.768L678.961 151H677.092L676.5 149.242ZM673.893 147.818H676.025L674.953 144.625L673.893 147.818ZM686.326 148.158C686.26 149.076 685.92 149.799 685.307 150.326C684.697 150.854 683.893 151.117 682.893 151.117C681.799 151.117 680.938 150.75 680.309 150.016C679.684 149.277 679.371 148.266 679.371 146.98V146.459C679.371 145.639 679.516 144.916 679.805 144.291C680.094 143.666 680.506 143.188 681.041 142.855C681.58 142.52 682.205 142.352 682.916 142.352C683.9 142.352 684.693 142.615 685.295 143.143C685.896 143.67 686.244 144.41 686.338 145.363H684.58C684.537 144.812 684.383 144.414 684.117 144.168C683.855 143.918 683.455 143.793 682.916 143.793C682.33 143.793 681.891 144.004 681.598 144.426C681.309 144.844 681.16 145.494 681.152 146.377V147.021C681.152 147.943 681.291 148.617 681.568 149.043C681.85 149.469 682.291 149.682 682.893 149.682C683.436 149.682 683.84 149.559 684.105 149.312C684.375 149.062 684.529 148.678 684.568 148.158H686.326ZM683.537 150.965L683.473 151.305C684.059 151.41 684.352 151.748 684.352 152.318C684.352 152.748 684.172 153.088 683.812 153.338C683.457 153.588 682.955 153.713 682.307 153.713L682.266 152.734C682.703 152.734 682.922 152.576 682.922 152.26C682.922 152.096 682.855 151.982 682.723 151.92C682.594 151.861 682.383 151.822 682.09 151.803L682.271 150.965H683.537ZM694.488 146.928C694.488 147.768 694.34 148.504 694.043 149.137C693.746 149.77 693.32 150.258 692.766 150.602C692.215 150.945 691.582 151.117 690.867 151.117C690.16 151.117 689.529 150.947 688.975 150.607C688.42 150.268 687.99 149.783 687.686 149.154C687.381 148.521 687.227 147.795 687.223 146.975V146.553C687.223 145.713 687.373 144.975 687.674 144.338C687.979 143.697 688.406 143.207 688.957 142.867C689.512 142.523 690.145 142.352 690.855 142.352C691.566 142.352 692.197 142.523 692.748 142.867C693.303 143.207 693.73 143.697 694.031 144.338C694.336 144.975 694.488 145.711 694.488 146.547V146.928ZM692.707 146.541C692.707 145.646 692.547 144.967 692.227 144.502C691.906 144.037 691.449 143.805 690.855 143.805C690.266 143.805 689.811 144.035 689.49 144.496C689.17 144.953 689.008 145.625 689.004 146.512V146.928C689.004 147.799 689.164 148.475 689.484 148.955C689.805 149.436 690.266 149.676 690.867 149.676C691.457 149.676 691.91 149.445 692.227 148.984C692.543 148.52 692.703 147.844 692.707 146.957V146.541ZM693.059 140.266C693.059 140.707 692.93 141.078 692.672 141.379C692.414 141.676 692.1 141.824 691.729 141.824C691.58 141.824 691.447 141.809 691.33 141.777C691.217 141.742 691.059 141.67 690.855 141.561C690.652 141.451 690.506 141.385 690.416 141.361C690.326 141.334 690.229 141.32 690.123 141.32C689.986 141.32 689.869 141.369 689.771 141.467C689.678 141.564 689.631 141.703 689.631 141.883L688.646 141.824C688.646 141.391 688.773 141.021 689.027 140.717C689.285 140.412 689.6 140.26 689.971 140.26C690.088 140.26 690.197 140.275 690.299 140.307C690.404 140.334 690.574 140.404 690.809 140.518C691.043 140.631 691.205 140.699 691.295 140.723C691.385 140.746 691.479 140.758 691.576 140.758C691.713 140.758 691.83 140.711 691.928 140.617C692.029 140.52 692.08 140.381 692.08 140.201L693.059 140.266ZM700.898 147.303H697.523V149.588H701.484V151H695.766V142.469H701.473V143.893H697.523V145.926H700.898V147.303ZM706.939 148.762C706.939 148.43 706.822 148.176 706.588 148C706.354 147.82 705.932 147.633 705.322 147.438C704.713 147.238 704.23 147.043 703.875 146.852C702.906 146.328 702.422 145.623 702.422 144.736C702.422 144.275 702.551 143.865 702.809 143.506C703.07 143.143 703.443 142.859 703.928 142.656C704.416 142.453 704.963 142.352 705.568 142.352C706.178 142.352 706.721 142.463 707.197 142.686C707.674 142.904 708.043 143.215 708.305 143.617C708.57 144.02 708.703 144.477 708.703 144.988H706.945C706.945 144.598 706.822 144.295 706.576 144.08C706.33 143.861 705.984 143.752 705.539 143.752C705.109 143.752 704.775 143.844 704.537 144.027C704.299 144.207 704.18 144.445 704.18 144.742C704.18 145.02 704.318 145.252 704.596 145.439C704.877 145.627 705.289 145.803 705.832 145.967C706.832 146.268 707.561 146.641 708.018 147.086C708.475 147.531 708.703 148.086 708.703 148.75C708.703 149.488 708.424 150.068 707.865 150.49C707.307 150.908 706.555 151.117 705.609 151.117C704.953 151.117 704.355 150.998 703.816 150.76C703.277 150.518 702.865 150.188 702.58 149.77C702.299 149.352 702.158 148.867 702.158 148.316H703.922C703.922 149.258 704.484 149.729 705.609 149.729C706.027 149.729 706.354 149.645 706.588 149.477C706.822 149.305 706.939 149.066 706.939 148.762Z" fill="#BDBDBD"/>
<path d="M4.06641 146.225H6.18164V147.754H4.06641V150.145H2.45508V147.754H0.333984V146.225H2.45508V143.934H4.06641V146.225ZM12.0586 147.994V151H10.3008V142.469H13.6289C14.2695 142.469 14.832 142.586 15.3164 142.82C15.8047 143.055 16.1797 143.389 16.4414 143.822C16.7031 144.252 16.834 144.742 16.834 145.293C16.834 146.129 16.5469 146.789 15.9727 147.273C15.4023 147.754 14.6113 147.994 13.5996 147.994H12.0586ZM12.0586 146.57H13.6289C14.0938 146.57 14.4473 146.461 14.6895 146.242C14.9355 146.023 15.0586 145.711 15.0586 145.305C15.0586 144.887 14.9355 144.549 14.6895 144.291C14.4434 144.033 14.1035 143.9 13.6699 143.893H12.0586V146.57ZM21.2051 147.877H19.8047V151H18.0469V142.469H21.2168C22.2246 142.469 23.002 142.693 23.5488 143.143C24.0957 143.592 24.3691 144.227 24.3691 145.047C24.3691 145.629 24.2422 146.115 23.9883 146.506C23.7383 146.893 23.3574 147.201 22.8457 147.432L24.6914 150.918V151H22.8047L21.2051 147.877ZM19.8047 146.453H21.2227C21.6641 146.453 22.0059 146.342 22.248 146.119C22.4902 145.893 22.6113 145.582 22.6113 145.188C22.6113 144.785 22.4961 144.469 22.2656 144.238C22.0391 144.008 21.6895 143.893 21.2168 143.893H19.8047V146.453ZM30.8438 147.303H27.4688V149.588H31.4297V151H25.7109V142.469H31.418V143.893H27.4688V145.926H30.8438V147.303ZM34.7578 142.469L36.9492 148.656L39.1289 142.469H41.4375V151H39.6738V148.668L39.8496 144.643L37.5469 151H36.3398L34.043 144.648L34.2188 148.668V151H32.4609V142.469H34.7578ZM44.8418 151H43.084V142.469H44.8418V151ZM51.3984 149.242H48.3164L47.7305 151H45.8613L49.0371 142.469H50.666L53.8594 151H51.9902L51.3984 149.242ZM48.791 147.818H50.9238L49.8516 144.625L48.791 147.818ZM61.2246 148.158C61.1582 149.076 60.8184 149.799 60.2051 150.326C59.5957 150.854 58.791 151.117 57.791 151.117C56.6973 151.117 55.8359 150.75 55.207 150.016C54.582 149.277 54.2695 148.266 54.2695 146.98V146.459C54.2695 145.639 54.4141 144.916 54.7031 144.291C54.9922 143.666 55.4043 143.188 55.9395 142.855C56.4785 142.52 57.1035 142.352 57.8145 142.352C58.7988 142.352 59.5918 142.615 60.1934 143.143C60.7949 143.67 61.1426 144.41 61.2363 145.363H59.4785C59.4355 144.812 59.2812 144.414 59.0156 144.168C58.7539 143.918 58.3535 143.793 57.8145 143.793C57.2285 143.793 56.7891 144.004 56.4961 144.426C56.207 144.844 56.0586 145.494 56.0508 146.377V147.021C56.0508 147.943 56.1895 148.617 56.4668 149.043C56.748 149.469 57.1895 149.682 57.791 149.682C58.334 149.682 58.7383 149.559 59.0039 149.312C59.2734 149.062 59.4277 148.678 59.4668 148.158H61.2246ZM58.4355 150.965L58.3711 151.305C58.957 151.41 59.25 151.748 59.25 152.318C59.25 152.748 59.0703 153.088 58.7109 153.338C58.3555 153.588 57.8535 153.713 57.2051 153.713L57.1641 152.734C57.6016 152.734 57.8203 152.576 57.8203 152.26C57.8203 152.096 57.7539 151.982 57.6211 151.92C57.4922 151.861 57.2812 151.822 56.9883 151.803L57.1699 150.965H58.4355ZM69.3867 146.928C69.3867 147.768 69.2383 148.504 68.9414 149.137C68.6445 149.77 68.2188 150.258 67.6641 150.602C67.1133 150.945 66.4805 151.117 65.7656 151.117C65.0586 151.117 64.4277 150.947 63.873 150.607C63.3184 150.268 62.8887 149.783 62.584 149.154C62.2793 148.521 62.125 147.795 62.1211 146.975V146.553C62.1211 145.713 62.2715 144.975 62.5723 144.338C62.877 143.697 63.3047 143.207 63.8555 142.867C64.4102 142.523 65.043 142.352 65.7539 142.352C66.4648 142.352 67.0957 142.523 67.6465 142.867C68.2012 143.207 68.6289 143.697 68.9297 144.338C69.2344 144.975 69.3867 145.711 69.3867 146.547V146.928ZM67.6055 146.541C67.6055 145.646 67.4453 144.967 67.125 144.502C66.8047 144.037 66.3477 143.805 65.7539 143.805C65.1641 143.805 64.709 144.035 64.3887 144.496C64.0684 144.953 63.9062 145.625 63.9023 146.512V146.928C63.9023 147.799 64.0625 148.475 64.3828 148.955C64.7031 149.436 65.1641 149.676 65.7656 149.676C66.3555 149.676 66.8086 149.445 67.125 148.984C67.4414 148.52 67.6016 147.844 67.6055 146.957V146.541ZM67.957 140.266C67.957 140.707 67.8281 141.078 67.5703 141.379C67.3125 141.676 66.998 141.824 66.627 141.824C66.4785 141.824 66.3457 141.809 66.2285 141.777C66.1152 141.742 65.957 141.67 65.7539 141.561C65.5508 141.451 65.4043 141.385 65.3145 141.361C65.2246 141.334 65.127 141.32 65.0215 141.32C64.8848 141.32 64.7676 141.369 64.6699 141.467C64.5762 141.564 64.5293 141.703 64.5293 141.883L63.5449 141.824C63.5449 141.391 63.6719 141.021 63.9258 140.717C64.1836 140.412 64.498 140.26 64.8691 140.26C64.9863 140.26 65.0957 140.275 65.1973 140.307C65.3027 140.334 65.4727 140.404 65.707 140.518C65.9414 140.631 66.1035 140.699 66.1934 140.723C66.2832 140.746 66.377 140.758 66.4746 140.758C66.6113 140.758 66.7285 140.711 66.8262 140.617C66.9277 140.52 66.9785 140.381 66.9785 140.201L67.957 140.266ZM75.7969 147.303H72.4219V149.588H76.3828V151H70.6641V142.469H76.3711V143.893H72.4219V145.926H75.7969V147.303ZM81.8379 148.762C81.8379 148.43 81.7207 148.176 81.4863 148C81.252 147.82 80.8301 147.633 80.2207 147.438C79.6113 147.238 79.1289 147.043 78.7734 146.852C77.8047 146.328 77.3203 145.623 77.3203 144.736C77.3203 144.275 77.4492 143.865 77.707 143.506C77.9688 143.143 78.3418 142.859 78.8262 142.656C79.3145 142.453 79.8613 142.352 80.4668 142.352C81.0762 142.352 81.6191 142.463 82.0957 142.686C82.5723 142.904 82.9414 143.215 83.2031 143.617C83.4688 144.02 83.6016 144.477 83.6016 144.988H81.8438C81.8438 144.598 81.7207 144.295 81.4746 144.08C81.2285 143.861 80.8828 143.752 80.4375 143.752C80.0078 143.752 79.6738 143.844 79.4355 144.027C79.1973 144.207 79.0781 144.445 79.0781 144.742C79.0781 145.02 79.2168 145.252 79.4941 145.439C79.7754 145.627 80.1875 145.803 80.7305 145.967C81.7305 146.268 82.459 146.641 82.916 147.086C83.373 147.531 83.6016 148.086 83.6016 148.75C83.6016 149.488 83.3223 150.068 82.7637 150.49C82.2051 150.908 81.4531 151.117 80.5078 151.117C79.8516 151.117 79.2539 150.998 78.7148 150.76C78.1758 150.518 77.7637 150.188 77.4785 149.77C77.1973 149.352 77.0566 148.867 77.0566 148.316H78.8203C78.8203 149.258 79.3828 149.729 80.5078 149.729C80.9258 149.729 81.252 149.645 81.4863 149.477C81.7207 149.305 81.8379 149.066 81.8379 148.762Z" fill="#BDBDBD"/>
<rect x="297.5" y="168.5" width="114" height="25" rx="2.5" stroke="#BDBDBD"/>
<path d="M319.895 181.514H316.52V185H314.762V176.469H320.316V177.893H316.52V180.096H319.895V181.514ZM328.344 180.928C328.344 181.768 328.195 182.504 327.898 183.137C327.602 183.77 327.176 184.258 326.621 184.602C326.07 184.945 325.438 185.117 324.723 185.117C324.016 185.117 323.385 184.947 322.83 184.607C322.275 184.268 321.846 183.783 321.541 183.154C321.236 182.521 321.082 181.795 321.078 180.975V180.553C321.078 179.713 321.229 178.975 321.529 178.338C321.834 177.697 322.262 177.207 322.812 176.867C323.367 176.523 324 176.352 324.711 176.352C325.422 176.352 326.053 176.523 326.604 176.867C327.158 177.207 327.586 177.697 327.887 178.338C328.191 178.975 328.344 179.711 328.344 180.547V180.928ZM326.562 180.541C326.562 179.646 326.402 178.967 326.082 178.502C325.762 178.037 325.305 177.805 324.711 177.805C324.121 177.805 323.666 178.035 323.346 178.496C323.025 178.953 322.863 179.625 322.859 180.512V180.928C322.859 181.799 323.02 182.475 323.34 182.955C323.66 183.436 324.121 183.676 324.723 183.676C325.312 183.676 325.766 183.445 326.082 182.984C326.398 182.52 326.559 181.844 326.562 180.957V180.541ZM332.779 181.877H331.379V185H329.621V176.469H332.791C333.799 176.469 334.576 176.693 335.123 177.143C335.67 177.592 335.943 178.227 335.943 179.047C335.943 179.629 335.816 180.115 335.562 180.506C335.312 180.893 334.932 181.201 334.42 181.432L336.266 184.918V185H334.379L332.779 181.877ZM331.379 180.453H332.797C333.238 180.453 333.58 180.342 333.822 180.119C334.064 179.893 334.186 179.582 334.186 179.188C334.186 178.785 334.07 178.469 333.84 178.238C333.613 178.008 333.264 177.893 332.791 177.893H331.379V180.453ZM342.102 183.242H339.02L338.434 185H336.564L339.74 176.469H341.369L344.562 185H342.693L342.102 183.242ZM339.494 181.818H341.627L340.555 178.625L339.494 181.818ZM348.348 185V176.469H350.973C351.723 176.469 352.393 176.639 352.982 176.979C353.576 177.314 354.039 177.795 354.371 178.42C354.703 179.041 354.869 179.748 354.869 180.541V180.934C354.869 181.727 354.705 182.432 354.377 183.049C354.053 183.666 353.594 184.145 353 184.484C352.406 184.824 351.736 184.996 350.99 185H348.348ZM350.105 177.893V183.588H350.955C351.643 183.588 352.168 183.363 352.531 182.914C352.895 182.465 353.08 181.822 353.088 180.986V180.535C353.088 179.668 352.908 179.012 352.549 178.566C352.189 178.117 351.664 177.893 350.973 177.893H350.105ZM363.16 180.928C363.16 181.768 363.012 182.504 362.715 183.137C362.418 183.77 361.992 184.258 361.438 184.602C360.887 184.945 360.254 185.117 359.539 185.117C358.832 185.117 358.201 184.947 357.646 184.607C357.092 184.268 356.662 183.783 356.357 183.154C356.053 182.521 355.898 181.795 355.895 180.975V180.553C355.895 179.713 356.045 178.975 356.346 178.338C356.65 177.697 357.078 177.207 357.629 176.867C358.184 176.523 358.816 176.352 359.527 176.352C360.238 176.352 360.869 176.523 361.42 176.867C361.975 177.207 362.402 177.697 362.703 178.338C363.008 178.975 363.16 179.711 363.16 180.547V180.928ZM361.379 180.541C361.379 179.646 361.219 178.967 360.898 178.502C360.578 178.037 360.121 177.805 359.527 177.805C358.938 177.805 358.482 178.035 358.162 178.496C357.842 178.953 357.68 179.625 357.676 180.512V180.928C357.676 181.799 357.836 182.475 358.156 182.955C358.477 183.436 358.938 183.676 359.539 183.676C360.129 183.676 360.582 183.445 360.898 182.984C361.215 182.52 361.375 181.844 361.379 180.957V180.541ZM369.184 181.994V185H367.426V176.469H370.754C371.395 176.469 371.957 176.586 372.441 176.82C372.93 177.055 373.305 177.389 373.566 177.822C373.828 178.252 373.959 178.742 373.959 179.293C373.959 180.129 373.672 180.789 373.098 181.273C372.527 181.754 371.736 181.994 370.725 181.994H369.184ZM369.184 180.57H370.754C371.219 180.57 371.572 180.461 371.814 180.242C372.061 180.023 372.184 179.711 372.184 179.305C372.184 178.887 372.061 178.549 371.814 178.291C371.568 178.033 371.229 177.9 370.795 177.893H369.184V180.57ZM378.945 183.242H375.863L375.277 185H373.408L376.584 176.469H378.213L381.406 185H379.537L378.945 183.242ZM376.338 181.818H378.471L377.398 178.625L376.338 181.818ZM384.072 185H382.314V176.469H384.072V185ZM383.527 174.166H385.373L383.75 175.982H382.373L383.527 174.166ZM390.131 182.762C390.131 182.43 390.014 182.176 389.779 182C389.545 181.82 389.123 181.633 388.514 181.438C387.904 181.238 387.422 181.043 387.066 180.852C386.098 180.328 385.613 179.623 385.613 178.736C385.613 178.275 385.742 177.865 386 177.506C386.262 177.143 386.635 176.859 387.119 176.656C387.607 176.453 388.154 176.352 388.76 176.352C389.369 176.352 389.912 176.463 390.389 176.686C390.865 176.904 391.234 177.215 391.496 177.617C391.762 178.02 391.895 178.477 391.895 178.988H390.137C390.137 178.598 390.014 178.295 389.768 178.08C389.521 177.861 389.176 177.752 388.73 177.752C388.301 177.752 387.967 177.844 387.729 178.027C387.49 178.207 387.371 178.445 387.371 178.742C387.371 179.02 387.51 179.252 387.787 179.439C388.068 179.627 388.48 179.803 389.023 179.967C390.023 180.268 390.752 180.641 391.209 181.086C391.666 181.531 391.895 182.086 391.895 182.75C391.895 183.488 391.615 184.068 391.057 184.49C390.498 184.908 389.746 185.117 388.801 185.117C388.145 185.117 387.547 184.998 387.008 184.76C386.469 184.518 386.057 184.188 385.771 183.77C385.49 183.352 385.35 182.867 385.35 182.316H387.113C387.113 183.258 387.676 183.729 388.801 183.729C389.219 183.729 389.545 183.645 389.779 183.477C390.014 183.305 390.131 183.066 390.131 182.762Z" fill="white"/>
<path d="M245.917 221.951C245.89 221.676 245.645 221.475 245.371 221.502L240.892 221.941C240.617 221.968 240.416 222.213 240.443 222.488C240.47 222.763 240.715 222.964 240.99 222.937L244.971 222.546L245.361 226.527C245.388 226.802 245.632 227.003 245.907 226.976C246.182 226.949 246.383 226.705 246.356 226.43L245.917 221.951ZM244.386 224.045L245.806 222.317L245.033 221.683L243.614 223.41L244.386 224.045Z" fill="#BDBDBD"/>
<path d="M199.5 184C199.5 183.724 199.276 183.5 199 183.5H194.5C194.224 183.5 194 183.724 194 184C194 184.276 194.224 184.5 194.5 184.5H198.5V188.5C198.5 188.776 198.724 189 199 189C199.276 189 199.5 188.776 199.5 188.5V184ZM198.354 185.354L199.354 184.354L198.646 183.646L197.646 184.646L198.354 185.354Z" fill="#BDBDBD"/>
<path d="M153.739 146.978C153.729 146.702 153.496 146.487 153.22 146.498L148.724 146.671C148.448 146.681 148.233 146.913 148.243 147.189C148.254 147.465 148.486 147.68 148.762 147.67L152.759 147.516L152.913 151.513C152.923 151.789 153.156 152.004 153.432 151.994C153.707 151.983 153.923 151.751 153.912 151.475L153.739 146.978ZM153.369 147.593L153.607 147.337L152.873 146.658L152.636 146.914L153.369 147.593Z" fill="#BDBDBD"/>
<circle cx="415" cy="58" r="3" fill="#C4C4C4"/>
<circle cx="531" cy="120" r="25" fill="#C4C4C4"/>
<circle cx="415" cy="119" r="3" fill="#C4C4C4"/>
<circle cx="415" cy="183" r="3" fill="#C4C4C4"/>
</svg>
