<svg width="713" height="620" viewBox="0 0 713 620" fill="none" xmlns="http://www.w3.org/2000/svg">
<path d="M411.698 56.7337C466.762 69.0732 516.304 99.0254 552.815 142.052C589.326 185.078 610.818 238.833 614.032 295.171C617.247 351.509 602.01 407.36 570.629 454.26C539.249 501.16 493.436 536.553 440.133 555.076C386.829 573.598 328.941 574.241 275.24 556.907C221.538 539.572 174.95 505.206 142.536 459.014C110.122 412.823 93.6481 357.324 95.6107 300.928C97.5733 244.533 117.865 190.314 153.412 146.487" stroke="#BDBDBD"/>
<circle cx="354.954" cy="309.954" r="259.5" transform="rotate(-77.5457 354.954 309.954)" stroke="white"/>
<path d="M411.898 118.757C452.927 131.015 488.939 156.118 514.635 190.372C540.331 224.627 554.354 266.225 554.642 309.045C554.929 351.865 541.466 393.648 516.232 428.244C490.998 462.841 455.326 488.425 414.465 501.232C373.604 514.04 329.711 513.395 289.244 499.391C248.777 485.388 213.872 458.767 189.666 423.443C165.46 388.12 153.231 345.96 154.777 303.166C156.323 260.373 171.563 219.206 198.255 185.721" stroke="#BDBDBD"/>
<circle cx="354.504" cy="310.504" r="200" transform="rotate(-73.3661 354.504 310.504)" stroke="white"/>
<path d="M411.51 182.456C438.183 194.311 460.484 214.208 475.292 239.362C490.101 264.516 496.677 293.67 494.1 322.746C491.523 351.821 479.923 379.364 460.922 401.522C441.92 423.68 416.468 439.345 388.126 446.325C359.783 453.306 329.968 451.253 302.849 440.453C275.731 429.654 252.667 410.648 236.882 386.095C221.097 361.541 213.382 332.668 214.815 303.514C216.248 274.359 226.758 246.382 244.875 223.495" stroke="#BDBDBD"/>
<circle cx="355.455" cy="309.455" r="140" transform="rotate(-66.0357 355.455 309.455)" stroke="white"/>
<rect x="297.5" y="45.4999" width="114" height="25" rx="2.5" stroke="#BDBDBD"/>
<path d="M334.895 59.5136H331.52V62.9999H329.762V54.4687H335.316V55.8925H331.52V58.0956H334.895V59.5136ZM341.469 59.3027H338.094V61.5878H342.055V62.9999H336.336V54.4687H342.043V55.8925H338.094V57.9257H341.469V59.3027ZM343.086 62.9999V54.4687H345.711C346.461 54.4687 347.131 54.6386 347.721 54.9785C348.314 55.3144 348.777 55.7949 349.109 56.4199C349.441 57.041 349.607 57.748 349.607 58.541V58.9335C349.607 59.7265 349.443 60.4316 349.115 61.0488C348.791 61.666 348.332 62.1445 347.738 62.4843C347.145 62.8242 346.475 62.996 345.729 62.9999H343.086ZM344.844 55.8925V61.5878H345.693C346.381 61.5878 346.906 61.3632 347.27 60.914C347.633 60.4648 347.818 59.8222 347.826 58.9863V58.5351C347.826 57.6679 347.646 57.0117 347.287 56.5663C346.928 56.1171 346.402 55.8925 345.711 55.8925H344.844ZM356.023 59.3027H352.648V61.5878H356.609V62.9999H350.891V54.4687H356.598V55.8925H352.648V57.9257H356.023V59.3027ZM360.799 59.8769H359.398V62.9999H357.641V54.4687H360.811C361.818 54.4687 362.596 54.6933 363.143 55.1425C363.689 55.5917 363.963 56.2265 363.963 57.0468C363.963 57.6288 363.836 58.1152 363.582 58.5058C363.332 58.8925 362.951 59.2011 362.439 59.4316L364.285 62.9179V62.9999H362.398L360.799 59.8769ZM359.398 58.4531H360.816C361.258 58.4531 361.6 58.3417 361.842 58.1191C362.084 57.8925 362.205 57.582 362.205 57.1874C362.205 56.7851 362.09 56.4687 361.859 56.2382C361.633 56.0078 361.283 55.8925 360.811 55.8925H359.398V58.4531ZM370.121 61.2421H367.039L366.453 62.9999H364.584L367.76 54.4687H369.389L372.582 62.9999H370.713L370.121 61.2421ZM367.514 59.8183H369.646L368.574 56.6249L367.514 59.8183ZM375.137 61.5878H378.869V62.9999H373.379V54.4687H375.137V61.5878Z" fill="white"/>
<rect x="297.5" y="104.5" width="114" height="25" rx="2.5" stroke="#BDBDBD"/>
<path d="M330.895 117.303H327.52V119.588H331.48V121H325.762V112.469H331.469V113.893H327.52V115.926H330.895V117.303ZM336.936 118.762C336.936 118.43 336.818 118.176 336.584 118C336.35 117.82 335.928 117.633 335.318 117.437C334.709 117.238 334.227 117.043 333.871 116.852C332.902 116.328 332.418 115.623 332.418 114.736C332.418 114.275 332.547 113.865 332.805 113.506C333.066 113.143 333.439 112.859 333.924 112.656C334.412 112.453 334.959 112.352 335.564 112.352C336.174 112.352 336.717 112.463 337.193 112.685C337.67 112.904 338.039 113.215 338.301 113.617C338.566 114.019 338.699 114.477 338.699 114.988H336.941C336.941 114.598 336.818 114.295 336.572 114.08C336.326 113.861 335.98 113.752 335.535 113.752C335.105 113.752 334.771 113.844 334.533 114.027C334.295 114.207 334.176 114.445 334.176 114.742C334.176 115.019 334.314 115.252 334.592 115.439C334.873 115.627 335.285 115.803 335.828 115.967C336.828 116.268 337.557 116.641 338.014 117.086C338.471 117.531 338.699 118.086 338.699 118.75C338.699 119.488 338.42 120.068 337.861 120.49C337.303 120.908 336.551 121.117 335.605 121.117C334.949 121.117 334.352 120.998 333.812 120.76C333.273 120.518 332.861 120.187 332.576 119.769C332.295 119.352 332.154 118.867 332.154 118.316H333.918C333.918 119.258 334.48 119.728 335.605 119.728C336.023 119.728 336.35 119.644 336.584 119.477C336.818 119.305 336.936 119.066 336.936 118.762ZM346.316 113.893H343.703V121H341.945V113.893H339.367V112.469H346.316V113.893ZM351.438 119.242H348.355L347.77 121H345.9L349.076 112.469H350.705L353.898 121H352.029L351.438 119.242ZM348.83 117.818H350.963L349.891 114.625L348.83 117.818ZM354.695 121V112.469H357.32C358.07 112.469 358.74 112.639 359.33 112.978C359.924 113.314 360.387 113.795 360.719 114.42C361.051 115.041 361.217 115.748 361.217 116.541V116.934C361.217 117.727 361.053 118.432 360.725 119.049C360.4 119.666 359.941 120.144 359.348 120.484C358.754 120.824 358.084 120.996 357.338 121H354.695ZM356.453 113.893V119.588H357.303C357.99 119.588 358.516 119.363 358.879 118.914C359.242 118.465 359.428 117.822 359.436 116.986V116.535C359.436 115.668 359.256 115.012 358.896 114.566C358.537 114.117 358.012 113.893 357.32 113.893H356.453ZM368.957 112.469V118.088C368.957 119.021 368.664 119.76 368.078 120.303C367.496 120.846 366.699 121.117 365.688 121.117C364.691 121.117 363.9 120.853 363.314 120.326C362.729 119.799 362.43 119.074 362.418 118.152V112.469H364.176V118.1C364.176 118.658 364.309 119.066 364.574 119.324C364.844 119.578 365.215 119.705 365.688 119.705C366.676 119.705 367.178 119.185 367.193 118.146V112.469H368.957ZM375.086 119.242H372.004L371.418 121H369.549L372.725 112.469H374.354L377.547 121H375.678L375.086 119.242ZM372.479 117.818H374.611L373.539 114.625L372.479 117.818ZM380.102 119.588H383.834V121H378.344V112.469H380.102V119.588Z" fill="white"/>
<path d="M630.943 149.029H627.645V147.664H630.943V149.029ZM637.16 148.994V152H635.402V143.469H638.73C639.371 143.469 639.934 143.586 640.418 143.82C640.906 144.055 641.281 144.389 641.543 144.822C641.805 145.252 641.936 145.742 641.936 146.293C641.936 147.129 641.648 147.789 641.074 148.273C640.504 148.754 639.713 148.994 638.701 148.994H637.16ZM637.16 147.57H638.73C639.195 147.57 639.549 147.461 639.791 147.242C640.037 147.023 640.16 146.711 640.16 146.305C640.16 145.887 640.037 145.549 639.791 145.291C639.545 145.033 639.205 144.9 638.771 144.893H637.16V147.57ZM646.307 148.877H644.906V152H643.148V143.469H646.318C647.326 143.469 648.104 143.693 648.65 144.143C649.197 144.592 649.471 145.227 649.471 146.047C649.471 146.629 649.344 147.115 649.09 147.506C648.84 147.893 648.459 148.201 647.947 148.432L649.793 151.918V152H647.906L646.307 148.877ZM644.906 147.453H646.324C646.766 147.453 647.107 147.342 647.35 147.119C647.592 146.893 647.713 146.582 647.713 146.188C647.713 145.785 647.598 145.469 647.367 145.238C647.141 145.008 646.791 144.893 646.318 144.893H644.906V147.453ZM655.945 148.303H652.57V150.588H656.531V152H650.812V143.469H656.52V144.893H652.57V146.926H655.945V148.303ZM659.859 143.469L662.051 149.656L664.23 143.469H666.539V152H664.775V149.668L664.951 145.643L662.648 152H661.441L659.145 145.648L659.32 149.668V152H657.562V143.469H659.859ZM669.943 152H668.186V143.469H669.943V152ZM676.5 150.242H673.418L672.832 152H670.963L674.139 143.469H675.768L678.961 152H677.092L676.5 150.242ZM673.893 148.818H676.025L674.953 145.625L673.893 148.818ZM686.326 149.158C686.26 150.076 685.92 150.799 685.307 151.326C684.697 151.854 683.893 152.117 682.893 152.117C681.799 152.117 680.938 151.75 680.309 151.016C679.684 150.277 679.371 149.266 679.371 147.98V147.459C679.371 146.639 679.516 145.916 679.805 145.291C680.094 144.666 680.506 144.188 681.041 143.855C681.58 143.52 682.205 143.352 682.916 143.352C683.9 143.352 684.693 143.615 685.295 144.143C685.896 144.67 686.244 145.41 686.338 146.363H684.58C684.537 145.812 684.383 145.414 684.117 145.168C683.855 144.918 683.455 144.793 682.916 144.793C682.33 144.793 681.891 145.004 681.598 145.426C681.309 145.844 681.16 146.494 681.152 147.377V148.021C681.152 148.943 681.291 149.617 681.568 150.043C681.85 150.469 682.291 150.682 682.893 150.682C683.436 150.682 683.84 150.559 684.105 150.312C684.375 150.062 684.529 149.678 684.568 149.158H686.326ZM683.537 151.965L683.473 152.305C684.059 152.41 684.352 152.748 684.352 153.318C684.352 153.748 684.172 154.088 683.812 154.338C683.457 154.588 682.955 154.713 682.307 154.713L682.266 153.734C682.703 153.734 682.922 153.576 682.922 153.26C682.922 153.096 682.855 152.982 682.723 152.92C682.594 152.861 682.383 152.822 682.09 152.803L682.271 151.965H683.537ZM694.488 147.928C694.488 148.768 694.34 149.504 694.043 150.137C693.746 150.77 693.32 151.258 692.766 151.602C692.215 151.945 691.582 152.117 690.867 152.117C690.16 152.117 689.529 151.947 688.975 151.607C688.42 151.268 687.99 150.783 687.686 150.154C687.381 149.521 687.227 148.795 687.223 147.975V147.553C687.223 146.713 687.373 145.975 687.674 145.338C687.979 144.697 688.406 144.207 688.957 143.867C689.512 143.523 690.145 143.352 690.855 143.352C691.566 143.352 692.197 143.523 692.748 143.867C693.303 144.207 693.73 144.697 694.031 145.338C694.336 145.975 694.488 146.711 694.488 147.547V147.928ZM692.707 147.541C692.707 146.646 692.547 145.967 692.227 145.502C691.906 145.037 691.449 144.805 690.855 144.805C690.266 144.805 689.811 145.035 689.49 145.496C689.17 145.953 689.008 146.625 689.004 147.512V147.928C689.004 148.799 689.164 149.475 689.484 149.955C689.805 150.436 690.266 150.676 690.867 150.676C691.457 150.676 691.91 150.445 692.227 149.984C692.543 149.52 692.703 148.844 692.707 147.957V147.541ZM693.059 141.266C693.059 141.707 692.93 142.078 692.672 142.379C692.414 142.676 692.1 142.824 691.729 142.824C691.58 142.824 691.447 142.809 691.33 142.777C691.217 142.742 691.059 142.67 690.855 142.561C690.652 142.451 690.506 142.385 690.416 142.361C690.326 142.334 690.229 142.32 690.123 142.32C689.986 142.32 689.869 142.369 689.771 142.467C689.678 142.564 689.631 142.703 689.631 142.883L688.646 142.824C688.646 142.391 688.773 142.021 689.027 141.717C689.285 141.412 689.6 141.26 689.971 141.26C690.088 141.26 690.197 141.275 690.299 141.307C690.404 141.334 690.574 141.404 690.809 141.518C691.043 141.631 691.205 141.699 691.295 141.723C691.385 141.746 691.479 141.758 691.576 141.758C691.713 141.758 691.83 141.711 691.928 141.617C692.029 141.52 692.08 141.381 692.08 141.201L693.059 141.266ZM700.898 148.303H697.523V150.588H701.484V152H695.766V143.469H701.473V144.893H697.523V146.926H700.898V148.303ZM706.939 149.762C706.939 149.43 706.822 149.176 706.588 149C706.354 148.82 705.932 148.633 705.322 148.438C704.713 148.238 704.23 148.043 703.875 147.852C702.906 147.328 702.422 146.623 702.422 145.736C702.422 145.275 702.551 144.865 702.809 144.506C703.07 144.143 703.443 143.859 703.928 143.656C704.416 143.453 704.963 143.352 705.568 143.352C706.178 143.352 706.721 143.463 707.197 143.686C707.674 143.904 708.043 144.215 708.305 144.617C708.57 145.02 708.703 145.477 708.703 145.988H706.945C706.945 145.598 706.822 145.295 706.576 145.08C706.33 144.861 705.984 144.752 705.539 144.752C705.109 144.752 704.775 144.844 704.537 145.027C704.299 145.207 704.18 145.445 704.18 145.742C704.18 146.02 704.318 146.252 704.596 146.439C704.877 146.627 705.289 146.803 705.832 146.967C706.832 147.268 707.561 147.641 708.018 148.086C708.475 148.531 708.703 149.086 708.703 149.75C708.703 150.488 708.424 151.068 707.865 151.49C707.307 151.908 706.555 152.117 705.609 152.117C704.953 152.117 704.355 151.998 703.816 151.76C703.277 151.518 702.865 151.188 702.58 150.77C702.299 150.352 702.158 149.867 702.158 149.316H703.922C703.922 150.258 704.484 150.729 705.609 150.729C706.027 150.729 706.354 150.645 706.588 150.477C706.822 150.305 706.939 150.066 706.939 149.762Z" fill="#BDBDBD"/>
<path d="M4.06641 147.225H6.18164V148.754H4.06641V151.145H2.45508V148.754H0.333984V147.225H2.45508V144.934H4.06641V147.225ZM12.0586 148.994V152H10.3008V143.469H13.6289C14.2695 143.469 14.832 143.586 15.3164 143.82C15.8047 144.055 16.1797 144.389 16.4414 144.822C16.7031 145.252 16.834 145.742 16.834 146.293C16.834 147.129 16.5469 147.789 15.9727 148.273C15.4023 148.754 14.6113 148.994 13.5996 148.994H12.0586ZM12.0586 147.57H13.6289C14.0938 147.57 14.4473 147.461 14.6895 147.242C14.9355 147.023 15.0586 146.711 15.0586 146.305C15.0586 145.887 14.9355 145.549 14.6895 145.291C14.4434 145.033 14.1035 144.9 13.6699 144.893H12.0586V147.57ZM21.2051 148.877H19.8047V152H18.0469V143.469H21.2168C22.2246 143.469 23.002 143.693 23.5488 144.143C24.0957 144.592 24.3691 145.227 24.3691 146.047C24.3691 146.629 24.2422 147.115 23.9883 147.506C23.7383 147.893 23.3574 148.201 22.8457 148.432L24.6914 151.918V152H22.8047L21.2051 148.877ZM19.8047 147.453H21.2227C21.6641 147.453 22.0059 147.342 22.248 147.119C22.4902 146.893 22.6113 146.582 22.6113 146.188C22.6113 145.785 22.4961 145.469 22.2656 145.238C22.0391 145.008 21.6895 144.893 21.2168 144.893H19.8047V147.453ZM30.8438 148.303H27.4688V150.588H31.4297V152H25.7109V143.469H31.418V144.893H27.4688V146.926H30.8438V148.303ZM34.7578 143.469L36.9492 149.656L39.1289 143.469H41.4375V152H39.6738V149.668L39.8496 145.643L37.5469 152H36.3398L34.043 145.648L34.2188 149.668V152H32.4609V143.469H34.7578ZM44.8418 152H43.084V143.469H44.8418V152ZM51.3984 150.242H48.3164L47.7305 152H45.8613L49.0371 143.469H50.666L53.8594 152H51.9902L51.3984 150.242ZM48.791 148.818H50.9238L49.8516 145.625L48.791 148.818ZM61.2246 149.158C61.1582 150.076 60.8184 150.799 60.2051 151.326C59.5957 151.854 58.791 152.117 57.791 152.117C56.6973 152.117 55.8359 151.75 55.207 151.016C54.582 150.277 54.2695 149.266 54.2695 147.98V147.459C54.2695 146.639 54.4141 145.916 54.7031 145.291C54.9922 144.666 55.4043 144.188 55.9395 143.855C56.4785 143.52 57.1035 143.352 57.8145 143.352C58.7988 143.352 59.5918 143.615 60.1934 144.143C60.7949 144.67 61.1426 145.41 61.2363 146.363H59.4785C59.4355 145.812 59.2812 145.414 59.0156 145.168C58.7539 144.918 58.3535 144.793 57.8145 144.793C57.2285 144.793 56.7891 145.004 56.4961 145.426C56.207 145.844 56.0586 146.494 56.0508 147.377V148.021C56.0508 148.943 56.1895 149.617 56.4668 150.043C56.748 150.469 57.1895 150.682 57.791 150.682C58.334 150.682 58.7383 150.559 59.0039 150.312C59.2734 150.062 59.4277 149.678 59.4668 149.158H61.2246ZM58.4355 151.965L58.3711 152.305C58.957 152.41 59.25 152.748 59.25 153.318C59.25 153.748 59.0703 154.088 58.7109 154.338C58.3555 154.588 57.8535 154.713 57.2051 154.713L57.1641 153.734C57.6016 153.734 57.8203 153.576 57.8203 153.26C57.8203 153.096 57.7539 152.982 57.6211 152.92C57.4922 152.861 57.2812 152.822 56.9883 152.803L57.1699 151.965H58.4355ZM69.3867 147.928C69.3867 148.768 69.2383 149.504 68.9414 150.137C68.6445 150.77 68.2188 151.258 67.6641 151.602C67.1133 151.945 66.4805 152.117 65.7656 152.117C65.0586 152.117 64.4277 151.947 63.873 151.607C63.3184 151.268 62.8887 150.783 62.584 150.154C62.2793 149.521 62.125 148.795 62.1211 147.975V147.553C62.1211 146.713 62.2715 145.975 62.5723 145.338C62.877 144.697 63.3047 144.207 63.8555 143.867C64.4102 143.523 65.043 143.352 65.7539 143.352C66.4648 143.352 67.0957 143.523 67.6465 143.867C68.2012 144.207 68.6289 144.697 68.9297 145.338C69.2344 145.975 69.3867 146.711 69.3867 147.547V147.928ZM67.6055 147.541C67.6055 146.646 67.4453 145.967 67.125 145.502C66.8047 145.037 66.3477 144.805 65.7539 144.805C65.1641 144.805 64.709 145.035 64.3887 145.496C64.0684 145.953 63.9062 146.625 63.9023 147.512V147.928C63.9023 148.799 64.0625 149.475 64.3828 149.955C64.7031 150.436 65.1641 150.676 65.7656 150.676C66.3555 150.676 66.8086 150.445 67.125 149.984C67.4414 149.52 67.6016 148.844 67.6055 147.957V147.541ZM67.957 141.266C67.957 141.707 67.8281 142.078 67.5703 142.379C67.3125 142.676 66.998 142.824 66.627 142.824C66.4785 142.824 66.3457 142.809 66.2285 142.777C66.1152 142.742 65.957 142.67 65.7539 142.561C65.5508 142.451 65.4043 142.385 65.3145 142.361C65.2246 142.334 65.127 142.32 65.0215 142.32C64.8848 142.32 64.7676 142.369 64.6699 142.467C64.5762 142.564 64.5293 142.703 64.5293 142.883L63.5449 142.824C63.5449 142.391 63.6719 142.021 63.9258 141.717C64.1836 141.412 64.498 141.26 64.8691 141.26C64.9863 141.26 65.0957 141.275 65.1973 141.307C65.3027 141.334 65.4727 141.404 65.707 141.518C65.9414 141.631 66.1035 141.699 66.1934 141.723C66.2832 141.746 66.377 141.758 66.4746 141.758C66.6113 141.758 66.7285 141.711 66.8262 141.617C66.9277 141.52 66.9785 141.381 66.9785 141.201L67.957 141.266ZM75.7969 148.303H72.4219V150.588H76.3828V152H70.6641V143.469H76.3711V144.893H72.4219V146.926H75.7969V148.303ZM81.8379 149.762C81.8379 149.43 81.7207 149.176 81.4863 149C81.252 148.82 80.8301 148.633 80.2207 148.438C79.6113 148.238 79.1289 148.043 78.7734 147.852C77.8047 147.328 77.3203 146.623 77.3203 145.736C77.3203 145.275 77.4492 144.865 77.707 144.506C77.9688 144.143 78.3418 143.859 78.8262 143.656C79.3145 143.453 79.8613 143.352 80.4668 143.352C81.0762 143.352 81.6191 143.463 82.0957 143.686C82.5723 143.904 82.9414 144.215 83.2031 144.617C83.4688 145.02 83.6016 145.477 83.6016 145.988H81.8438C81.8438 145.598 81.7207 145.295 81.4746 145.08C81.2285 144.861 80.8828 144.752 80.4375 144.752C80.0078 144.752 79.6738 144.844 79.4355 145.027C79.1973 145.207 79.0781 145.445 79.0781 145.742C79.0781 146.02 79.2168 146.252 79.4941 146.439C79.7754 146.627 80.1875 146.803 80.7305 146.967C81.7305 147.268 82.459 147.641 82.916 148.086C83.373 148.531 83.6016 149.086 83.6016 149.75C83.6016 150.488 83.3223 151.068 82.7637 151.49C82.2051 151.908 81.4531 152.117 80.5078 152.117C79.8516 152.117 79.2539 151.998 78.7148 151.76C78.1758 151.518 77.7637 151.188 77.4785 150.77C77.1973 150.352 77.0566 149.867 77.0566 149.316H78.8203C78.8203 150.258 79.3828 150.729 80.5078 150.729C80.9258 150.729 81.252 150.645 81.4863 150.477C81.7207 150.305 81.8379 150.066 81.8379 149.762Z" fill="#BDBDBD"/>
<rect x="297.5" y="169.5" width="114" height="25" rx="2.5" stroke="#BDBDBD"/>
<path d="M319.895 182.514H316.52V186H314.762V177.469H320.316V178.893H316.52V181.096H319.895V182.514ZM328.344 181.928C328.344 182.768 328.195 183.504 327.898 184.137C327.602 184.77 327.176 185.258 326.621 185.602C326.07 185.945 325.438 186.117 324.723 186.117C324.016 186.117 323.385 185.947 322.83 185.607C322.275 185.268 321.846 184.783 321.541 184.154C321.236 183.521 321.082 182.795 321.078 181.975V181.553C321.078 180.713 321.229 179.975 321.529 179.338C321.834 178.697 322.262 178.207 322.812 177.867C323.367 177.523 324 177.352 324.711 177.352C325.422 177.352 326.053 177.523 326.604 177.867C327.158 178.207 327.586 178.697 327.887 179.338C328.191 179.975 328.344 180.711 328.344 181.547V181.928ZM326.562 181.541C326.562 180.646 326.402 179.967 326.082 179.502C325.762 179.037 325.305 178.805 324.711 178.805C324.121 178.805 323.666 179.035 323.346 179.496C323.025 179.953 322.863 180.625 322.859 181.512V181.928C322.859 182.799 323.02 183.475 323.34 183.955C323.66 184.436 324.121 184.676 324.723 184.676C325.312 184.676 325.766 184.445 326.082 183.984C326.398 183.52 326.559 182.844 326.562 181.957V181.541ZM332.779 182.877H331.379V186H329.621V177.469H332.791C333.799 177.469 334.576 177.693 335.123 178.143C335.67 178.592 335.943 179.227 335.943 180.047C335.943 180.629 335.816 181.115 335.562 181.506C335.312 181.893 334.932 182.201 334.42 182.432L336.266 185.918V186H334.379L332.779 182.877ZM331.379 181.453H332.797C333.238 181.453 333.58 181.342 333.822 181.119C334.064 180.893 334.186 180.582 334.186 180.188C334.186 179.785 334.07 179.469 333.84 179.238C333.613 179.008 333.264 178.893 332.791 178.893H331.379V181.453ZM342.102 184.242H339.02L338.434 186H336.564L339.74 177.469H341.369L344.562 186H342.693L342.102 184.242ZM339.494 182.818H341.627L340.555 179.625L339.494 182.818ZM348.348 186V177.469H350.973C351.723 177.469 352.393 177.639 352.982 177.979C353.576 178.314 354.039 178.795 354.371 179.42C354.703 180.041 354.869 180.748 354.869 181.541V181.934C354.869 182.727 354.705 183.432 354.377 184.049C354.053 184.666 353.594 185.145 353 185.484C352.406 185.824 351.736 185.996 350.99 186H348.348ZM350.105 178.893V184.588H350.955C351.643 184.588 352.168 184.363 352.531 183.914C352.895 183.465 353.08 182.822 353.088 181.986V181.535C353.088 180.668 352.908 180.012 352.549 179.566C352.189 179.117 351.664 178.893 350.973 178.893H350.105ZM363.16 181.928C363.16 182.768 363.012 183.504 362.715 184.137C362.418 184.77 361.992 185.258 361.438 185.602C360.887 185.945 360.254 186.117 359.539 186.117C358.832 186.117 358.201 185.947 357.646 185.607C357.092 185.268 356.662 184.783 356.357 184.154C356.053 183.521 355.898 182.795 355.895 181.975V181.553C355.895 180.713 356.045 179.975 356.346 179.338C356.65 178.697 357.078 178.207 357.629 177.867C358.184 177.523 358.816 177.352 359.527 177.352C360.238 177.352 360.869 177.523 361.42 177.867C361.975 178.207 362.402 178.697 362.703 179.338C363.008 179.975 363.16 180.711 363.16 181.547V181.928ZM361.379 181.541C361.379 180.646 361.219 179.967 360.898 179.502C360.578 179.037 360.121 178.805 359.527 178.805C358.938 178.805 358.482 179.035 358.162 179.496C357.842 179.953 357.68 180.625 357.676 181.512V181.928C357.676 182.799 357.836 183.475 358.156 183.955C358.477 184.436 358.938 184.676 359.539 184.676C360.129 184.676 360.582 184.445 360.898 183.984C361.215 183.52 361.375 182.844 361.379 181.957V181.541ZM369.184 182.994V186H367.426V177.469H370.754C371.395 177.469 371.957 177.586 372.441 177.82C372.93 178.055 373.305 178.389 373.566 178.822C373.828 179.252 373.959 179.742 373.959 180.293C373.959 181.129 373.672 181.789 373.098 182.273C372.527 182.754 371.736 182.994 370.725 182.994H369.184ZM369.184 181.57H370.754C371.219 181.57 371.572 181.461 371.814 181.242C372.061 181.023 372.184 180.711 372.184 180.305C372.184 179.887 372.061 179.549 371.814 179.291C371.568 179.033 371.229 178.9 370.795 178.893H369.184V181.57ZM378.945 184.242H375.863L375.277 186H373.408L376.584 177.469H378.213L381.406 186H379.537L378.945 184.242ZM376.338 182.818H378.471L377.398 179.625L376.338 182.818ZM384.072 186H382.314V177.469H384.072V186ZM383.527 175.166H385.373L383.75 176.982H382.373L383.527 175.166ZM390.131 183.762C390.131 183.43 390.014 183.176 389.779 183C389.545 182.82 389.123 182.633 388.514 182.438C387.904 182.238 387.422 182.043 387.066 181.852C386.098 181.328 385.613 180.623 385.613 179.736C385.613 179.275 385.742 178.865 386 178.506C386.262 178.143 386.635 177.859 387.119 177.656C387.607 177.453 388.154 177.352 388.76 177.352C389.369 177.352 389.912 177.463 390.389 177.686C390.865 177.904 391.234 178.215 391.496 178.617C391.762 179.02 391.895 179.477 391.895 179.988H390.137C390.137 179.598 390.014 179.295 389.768 179.08C389.521 178.861 389.176 178.752 388.73 178.752C388.301 178.752 387.967 178.844 387.729 179.027C387.49 179.207 387.371 179.445 387.371 179.742C387.371 180.02 387.51 180.252 387.787 180.439C388.068 180.627 388.48 180.803 389.023 180.967C390.023 181.268 390.752 181.641 391.209 182.086C391.666 182.531 391.895 183.086 391.895 183.75C391.895 184.488 391.615 185.068 391.057 185.49C390.498 185.908 389.746 186.117 388.801 186.117C388.145 186.117 387.547 185.998 387.008 185.76C386.469 185.518 386.057 185.188 385.771 184.77C385.49 184.352 385.35 183.867 385.35 183.316H387.113C387.113 184.258 387.676 184.729 388.801 184.729C389.219 184.729 389.545 184.645 389.779 184.477C390.014 184.305 390.131 184.066 390.131 183.762Z" fill="white"/>
<path d="M245.917 222.951C245.89 222.676 245.645 222.475 245.371 222.502L240.892 222.941C240.617 222.968 240.416 223.213 240.443 223.488C240.47 223.763 240.715 223.964 240.99 223.937L244.971 223.546L245.361 227.527C245.388 227.802 245.632 228.003 245.907 227.976C246.182 227.949 246.383 227.705 246.356 227.43L245.917 222.951ZM244.386 225.045L245.806 223.317L245.033 222.683L243.614 224.41L244.386 225.045Z" fill="#BDBDBD"/>
<path d="M199.5 185C199.5 184.724 199.276 184.5 199 184.5H194.5C194.224 184.5 194 184.724 194 185C194 185.276 194.224 185.5 194.5 185.5H198.5V189.5C198.5 189.776 198.724 190 199 190C199.276 190 199.5 189.776 199.5 189.5V185ZM198.354 186.354L199.354 185.354L198.646 184.646L197.646 185.646L198.354 186.354Z" fill="#BDBDBD"/>
<path d="M153.739 147.978C153.729 147.702 153.496 147.487 153.22 147.498L148.724 147.671C148.448 147.681 148.233 147.913 148.243 148.189C148.254 148.465 148.486 148.68 148.762 148.67L152.759 148.516L152.913 152.513C152.923 152.789 153.156 153.004 153.432 152.994C153.707 152.983 153.923 152.751 153.912 152.475L153.739 147.978ZM153.369 148.593L153.607 148.337L152.873 147.658L152.636 147.914L153.369 148.593Z" fill="#BDBDBD"/>
<circle cx="415" cy="58.9999" r="3" fill="#C4C4C4"/>
<circle cx="531" cy="121" r="25" fill="#C4C4C4"/>
<circle cx="415" cy="120" r="3" fill="#C4C4C4"/>
<circle cx="415" cy="184" r="3" fill="#C4C4C4"/>
</svg>
