<svg width="120" height="102" viewBox="0 0 120 102" fill="none" xmlns="http://www.w3.org/2000/svg">
<circle cx="30" cy="69" r="30" fill="white" fill-opacity="0.25"/>
<circle cx="30" cy="95" r="4" fill="white" fill-opacity="0.4"/>
<line opacity="0.4" x1="60" y1="90.5" x2="93" y2="90.5" stroke="white"/>
<line opacity="0.4" x1="60" y1="38.5" x2="93" y2="38.5" stroke="white"/>
<path opacity="0.4" d="M104.486 46.467V38.212C104.486 37.9 104.226 37.64 103.914 37.64H102.848C102.718 37.64 102.575 37.705 102.497 37.77L99.923 39.759C99.806 39.85 99.741 40.006 99.741 40.175V40.591C99.741 40.903 100.001 41.163 100.313 41.163C100.417 41.163 100.534 41.124 100.625 41.059L102.029 40.136L102.484 39.213H102.835L102.601 40.812V46.467C102.601 46.792 102.861 47.039 103.173 47.039H103.914C104.226 47.039 104.486 46.792 104.486 46.467ZM111.468 46.467V38.212C111.468 37.9 111.208 37.64 110.896 37.64H109.83C109.7 37.64 109.557 37.705 109.479 37.77L106.905 39.759C106.788 39.85 106.723 40.006 106.723 40.175V40.591C106.723 40.903 106.983 41.163 107.295 41.163C107.399 41.163 107.516 41.124 107.607 41.059L109.011 40.136L109.466 39.213H109.817L109.583 40.812V46.467C109.583 46.792 109.843 47.039 110.155 47.039H110.896C111.208 47.039 111.468 46.792 111.468 46.467ZM119.231 46.597V45.921C119.231 45.7 119.049 45.518 118.828 45.518H116.54L115.084 45.739V45.44L116.085 44.829L118.516 42.008C118.906 41.553 119.179 40.968 119.179 40.318C119.179 38.836 117.983 37.64 116.501 37.64H114.291C114.07 37.64 113.888 37.822 113.888 38.056V38.719C113.888 38.94 114.07 39.122 114.304 39.122H116.306C116.852 39.122 117.307 39.577 117.307 40.123C117.307 40.396 117.19 40.643 117.034 40.838L113.706 44.907C113.654 44.972 113.654 45.076 113.654 45.154V46.428C113.654 46.74 113.914 47 114.226 47H118.828C119.049 47 119.231 46.818 119.231 46.597Z" fill="white"/>
<path opacity="0.4" d="M8.064 13.384C8.064 13.328 8.05 13.272 8.036 13.216L5.796 4.564C5.698 4.2 5.376 3.92 4.97 3.92H3.29C2.898 3.92 2.576 4.2 2.478 4.564L0.238 13.216C0.224 13.272 0.21 13.328 0.21 13.384C0.21 13.72 0.476 14 0.826 14H1.582C1.876 14 2.128 13.79 2.184 13.51L2.674 11.298H5.586L6.09 13.51C6.146 13.79 6.398 14 6.692 14H7.448C7.784 14 8.064 13.72 8.064 13.384ZM5.418 9.912H2.856V9.492L3.248 8.638L3.612 6.86L3.752 5.53H4.522L4.648 6.86L5.012 8.638L5.418 9.492V9.912ZM13.2135 7.882V6.804C13.2135 6.594 13.0595 6.384 12.7795 6.384H12.4995C11.9255 6.384 11.5335 6.804 11.5335 6.804L11.1695 7.728H10.7775V6.944C10.7775 6.622 10.5255 6.37 10.2175 6.37H9.67148C9.34948 6.37 9.09748 6.622 9.09748 6.944V13.454C9.09748 13.79 9.36348 14.07 9.71348 14.07H10.3995C10.7355 14.07 11.0155 13.79 11.0155 13.454V9.618C11.0155 8.764 11.3935 8.316 12.2475 8.316H12.7795C13.0595 8.316 13.2135 8.092 13.2135 7.882ZM18.2265 7.42V6.874C18.2265 6.636 18.0305 6.44 17.7925 6.44H16.9525V4.536C16.9525 4.2 16.6725 3.92 16.3365 3.92H15.6365C15.3005 3.92 15.0205 4.2 15.0205 4.536V6.44H14.1945C13.9565 6.44 13.7605 6.636 13.7605 6.874V7.42C13.7605 7.672 13.9565 7.868 14.1945 7.868H15.0205V13.454C15.0205 13.79 15.3005 14.07 15.6365 14.07H16.3365C16.6725 14.07 16.9525 13.79 16.9525 13.454V7.868H17.7925C18.0305 7.868 18.2265 7.672 18.2265 7.42ZM21.3957 4.732V4.382C21.3957 4.046 21.1157 3.78 20.7797 3.78H19.9537C19.6037 3.78 19.3377 4.046 19.3377 4.382V4.732C19.3377 5.068 19.6037 5.348 19.9537 5.348H20.7797C21.1157 5.348 21.3957 5.068 21.3957 4.732ZM21.3257 13.454V6.986C21.3257 6.65 21.0457 6.37 20.7097 6.37H20.0097C19.6737 6.37 19.3937 6.65 19.3937 6.986V13.454C19.3937 13.79 19.6737 14.07 20.0097 14.07H20.7097C21.0457 14.07 21.3257 13.79 21.3257 13.454ZM29.0491 14.462V14.126C29.0491 12.978 28.0551 12.054 26.9071 12.054H25.2411C24.8771 12.054 24.5831 11.76 24.5831 11.396C24.5831 11.074 24.7931 10.822 25.0871 10.752C25.2131 10.822 25.4091 10.92 25.6751 10.92H26.2351C27.4951 10.92 28.4471 10.206 28.4471 9.31V9.1C28.4471 8.582 28.0971 8.302 27.6351 8.134L27.4111 8.05V7.714H28.4191C28.6571 7.714 28.8531 7.518 28.8531 7.28V6.874C28.8531 6.636 28.6571 6.44 28.4191 6.44H25.4091C23.7851 6.44 22.7211 7.35 22.7211 8.554V8.904C22.7211 9.59 23.1831 9.968 23.7711 10.192L23.8971 10.234V10.5L23.8131 10.514C23.2531 10.612 22.7911 10.99 22.7911 11.55C22.7911 12.11 23.2531 12.558 23.8131 12.558H23.9251V12.908L23.4211 13.09C22.9171 13.258 22.5391 13.664 22.5391 14.238V14.462C22.5391 15.596 23.5471 16.52 24.6811 16.52H26.9071C28.0551 16.52 29.0491 15.596 29.0491 14.462ZM26.5291 8.988C26.5291 9.506 26.1091 9.87 25.5911 9.87C25.0591 9.87 24.6391 9.506 24.6391 8.988V8.526C24.6391 8.008 25.0591 7.658 25.5911 7.658C26.1091 7.658 26.5291 8.008 26.5291 8.526V8.988ZM27.2011 14.294C27.2011 14.896 26.8651 15.302 26.2771 15.302H25.3111C24.7231 15.302 24.3731 14.896 24.3731 14.294C24.3731 13.706 24.7231 13.3 25.3111 13.3H26.2771C26.8651 13.3 27.2011 13.706 27.2011 14.294ZM36.1582 11.312V9.128C36.1582 7.63 34.9402 6.44 33.6102 6.44H32.4482C31.1182 6.44 29.9142 7.63 29.9142 9.128V11.312C29.9142 12.796 31.1182 14 32.4482 14H33.6102C34.9402 14 36.1582 12.796 36.1582 11.312ZM34.2402 11.284C34.2402 12.194 33.8902 12.642 33.0362 12.642C32.1822 12.642 31.8322 12.194 31.8322 11.284V9.198C31.8322 8.288 32.1822 7.798 33.0362 7.798C33.8902 7.798 34.2402 8.288 34.2402 9.198V11.284ZM41.9303 11.914C41.9303 11.172 41.5663 10.43 40.9783 10.08L39.2003 9.03C39.0183 8.918 38.9063 8.708 38.9063 8.484C38.9063 8.148 39.2003 7.868 39.5503 7.868H41.0763C41.3143 7.868 41.5103 7.672 41.5103 7.42V6.874C41.5103 6.636 41.3143 6.44 41.0763 6.44H39.1723C38.0103 6.44 37.0723 7.364 37.0723 8.526C37.0723 9.254 37.4363 9.996 38.0243 10.346L39.7743 11.396C39.9563 11.508 40.0963 11.704 40.0963 11.942C40.0963 12.292 39.8163 12.572 39.4663 12.572H37.5343C37.2963 12.572 37.1003 12.768 37.1003 13.02V13.566C37.1003 13.804 37.2963 14 37.5343 14H39.8443C41.0063 14 41.9303 13.062 41.9303 11.914ZM52.8298 11.508V8.932C52.8298 7.224 51.7938 6.356 50.6738 6.356C49.7218 6.356 49.1198 6.804 49.1198 6.804L48.6858 7.588H48.2938V6.944C48.2938 6.622 48.0418 6.37 47.7338 6.37H47.1878C46.8798 6.37 46.6138 6.622 46.6138 6.944V15.988C46.6138 16.324 46.8938 16.604 47.2298 16.604H47.9158C48.2658 16.604 48.5318 16.324 48.5318 15.988V14.546L48.2938 12.852H48.6858L49.1198 13.636C49.1198 13.636 49.7218 14.084 50.6738 14.084C51.7938 14.084 52.8298 13.216 52.8298 11.508ZM50.9118 11.298C50.9118 12.152 50.5198 12.572 49.7778 12.572C48.9378 12.572 48.5318 11.368 48.5318 11.368V9.072C48.5318 9.072 48.9378 7.868 49.7778 7.868C50.5198 7.868 50.9118 8.288 50.9118 9.142V11.298ZM60.305 13.496V7.056C60.305 6.72 60.025 6.44 59.689 6.44H59.003C58.667 6.44 58.387 6.72 58.387 7.056V10.822C58.387 11.886 58.051 12.572 57.211 12.572C56.469 12.572 56.147 12.152 56.147 11.298V7.056C56.147 6.72 55.881 6.44 55.531 6.44H54.845C54.509 6.44 54.229 6.72 54.229 7.056V11.508C54.229 13.216 55.223 14.084 56.343 14.084C57.295 14.084 57.827 13.636 57.827 13.636L58.233 12.852H58.625V13.496C58.625 13.818 58.877 14.07 59.185 14.07H59.731C60.039 14.07 60.305 13.818 60.305 13.496ZM68.2243 11.508V8.932C68.2243 7.224 67.1883 6.356 66.0683 6.356C65.1163 6.356 64.5143 6.804 64.5143 6.804L64.0803 7.588H63.6883L63.9263 5.894V4.452C63.9263 4.116 63.6603 3.836 63.3103 3.836H62.6243C62.2883 3.836 62.0083 4.116 62.0083 4.452V13.496C62.0083 13.818 62.2743 14.07 62.5823 14.07H63.1283C63.4363 14.07 63.6883 13.818 63.6883 13.496V12.852H64.0803L64.5143 13.636C64.5143 13.636 65.1163 14.084 66.0683 14.084C67.1883 14.084 68.2243 13.216 68.2243 11.508ZM66.3063 11.298C66.3063 12.152 65.9143 12.572 65.1723 12.572C64.3323 12.572 63.9263 11.368 63.9263 11.368V9.072C63.9263 9.072 64.3323 7.868 65.1723 7.868C65.9143 7.868 66.3063 8.288 66.3063 9.142V11.298ZM72.2555 13.636V13.216C72.2555 13.02 72.0875 12.852 71.8915 12.852C71.6395 12.852 71.5415 12.684 71.5415 12.432V4.536C71.5415 4.2 71.2755 3.92 70.9255 3.92H70.2395C69.9035 3.92 69.6235 4.2 69.6235 4.536V12.46C69.6235 13.384 70.1695 14.07 71.0935 14.07H71.8215C72.0595 14.07 72.2555 13.874 72.2555 13.636ZM75.6184 4.732V4.382C75.6184 4.046 75.3384 3.78 75.0024 3.78H74.1764C73.8264 3.78 73.5604 4.046 73.5604 4.382V4.732C73.5604 5.068 73.8264 5.348 74.1764 5.348H75.0024C75.3384 5.348 75.6184 5.068 75.6184 4.732ZM75.5484 13.454V6.986C75.5484 6.65 75.2684 6.37 74.9324 6.37H74.2324C73.8964 6.37 73.6164 6.65 73.6164 6.986V13.454C73.6164 13.79 73.8964 14.07 74.2324 14.07H74.9324C75.2684 14.07 75.5484 13.79 75.5484 13.454ZM81.6618 13.566V12.95C81.6618 12.712 81.4658 12.516 81.2278 12.516H80.2338C79.3658 12.516 78.8898 11.942 78.8898 11.102V9.338C78.8898 8.498 79.3658 7.924 80.2338 7.924H81.2278C81.4658 7.924 81.6618 7.728 81.6618 7.49V6.874C81.6618 6.636 81.4658 6.44 81.2278 6.44H79.7158C78.1758 6.44 76.9718 7.868 76.9718 9.198V11.242C76.9718 12.572 78.1758 14 79.7158 14H81.2278C81.4658 14 81.6618 13.804 81.6618 13.566ZM88.2479 13.496V8.848C88.2479 7.518 87.1699 6.44 85.8399 6.44H83.6559C83.4039 6.44 83.2079 6.636 83.2079 6.874V7.42C83.2079 7.672 83.4039 7.868 83.6559 7.868H85.0139C85.8819 7.868 86.3299 8.162 86.3299 9.002V9.408H84.7479C83.4599 9.408 82.4099 10.458 82.4099 11.746C82.4099 13.146 83.3899 14.084 84.3559 14.084C85.3079 14.084 85.7979 13.776 85.7979 13.776L86.1759 12.992H86.5679V13.496C86.5679 13.818 86.8059 14.07 87.1279 14.07H87.6739C87.9819 14.07 88.2479 13.818 88.2479 13.496ZM86.3299 11.704C86.3299 11.704 85.9939 12.642 85.1539 12.642C84.5939 12.642 84.2439 12.222 84.2439 11.592C84.2439 11.004 84.7059 10.528 85.2939 10.528H86.3299V11.704ZM95.8206 13.496V4.452C95.8206 4.116 95.5406 3.836 95.2046 3.836H94.5186C94.1686 3.836 93.9026 4.116 93.9026 4.452V5.894L94.1406 7.588H93.7486L93.3146 6.804C93.3146 6.804 92.7126 6.356 91.7606 6.356C90.6406 6.356 89.6046 7.224 89.6046 8.932V11.508C89.6046 13.216 90.6406 14.084 91.7606 14.084C92.7126 14.084 93.3146 13.636 93.3146 13.636L93.7486 12.852H94.1406V13.496C94.1406 13.818 94.3786 14.07 94.7006 14.07H95.2466C95.5546 14.07 95.8206 13.818 95.8206 13.496ZM93.9026 11.368C93.9026 11.368 93.4966 12.572 92.6566 12.572C91.9146 12.572 91.5226 12.152 91.5226 11.298V9.142C91.5226 8.288 91.9146 7.868 92.6566 7.868C93.4966 7.868 93.9026 9.072 93.9026 9.072V11.368ZM103.506 11.312V9.128C103.506 7.63 102.288 6.44 100.958 6.44H99.7958C98.4658 6.44 97.2618 7.63 97.2618 9.128V11.312C97.2618 12.796 98.4658 14 99.7958 14H100.958C102.288 14 103.506 12.796 103.506 11.312ZM101.588 11.284C101.588 12.194 101.238 12.642 100.384 12.642C99.5298 12.642 99.1798 12.194 99.1798 11.284V9.198C99.1798 8.288 99.5298 7.798 100.384 7.798C101.238 7.798 101.588 8.288 101.588 9.198V11.284ZM109.278 11.914C109.278 11.172 108.914 10.43 108.326 10.08L106.548 9.03C106.366 8.918 106.254 8.708 106.254 8.484C106.254 8.148 106.548 7.868 106.898 7.868H108.424C108.662 7.868 108.858 7.672 108.858 7.42V6.874C108.858 6.636 108.662 6.44 108.424 6.44H106.52C105.358 6.44 104.42 7.364 104.42 8.526C104.42 9.254 104.784 9.996 105.372 10.346L107.122 11.396C107.304 11.508 107.444 11.704 107.444 11.942C107.444 12.292 107.164 12.572 106.814 12.572H104.882C104.644 12.572 104.448 12.768 104.448 13.02V13.566C104.448 13.804 104.644 14 104.882 14H107.192C108.354 14 109.278 13.062 109.278 11.914Z" fill="white"/>
<path opacity="0.4" d="M105.344 96.179V92.461C105.344 90.849 104.109 89.536 102.497 89.536C100.885 89.536 99.637 90.849 99.637 92.461V96.179C99.637 97.791 100.885 99.104 102.497 99.104C104.109 99.104 105.344 97.791 105.344 96.179ZM103.472 96.582C103.472 97.167 103.069 97.635 102.497 97.635C101.912 97.635 101.509 97.167 101.509 96.582C101.509 96.582 101.509 92.63 101.509 92.058C101.509 91.486 101.912 91.018 102.497 91.018C103.069 91.018 103.472 91.486 103.472 92.058C103.472 92.63 103.472 96.582 103.472 96.582Z" fill="white"/>
</svg>
